<?xml version="1.0" encoding="utf-8"?>
<!-- Generator: Adobe Illustrator 27.6.1, SVG Export Plug-In . SVG Version: 6.00 Build 0)  -->
<svg version="1.1" id="Camada_1" xmlns="http://www.w3.org/2000/svg" xmlns:xlink="http://www.w3.org/1999/xlink" x="0px" y="0px"
	 viewBox="0 0 522.5 522.5" style="enable-background:new 0 0 522.5 522.5;" xml:space="preserve">
<style type="text/css">
	.st0{fill:#FFFFFF;}
	.st1{opacity:5.000000e-02;fill:url(#);}
	.st2{fill:#3399CC;}
	.st3{fill:#333333;}
	.st4{opacity:0.1;fill:url(#);}
	.st5{fill:#EEEEEE;}
	.st6{fill:none;stroke:#333333;stroke-width:2;stroke-miterlimit:10;}
	.st7{fill:none;stroke:#0099FF;stroke-width:2;stroke-miterlimit:10;}
	.st8{fill:none;stroke:#FF1B19;stroke-width:2;stroke-miterlimit:10;}
	.st9{clip-path:url(#SVGID_00000096750238384374535630000015232938100826734267_);}
	.st10{fill:#212121;}
	.st11{opacity:0.6;}
	.st12{clip-path:url(#SVGID_00000059988711503601424600000011394158378204365731_);}
	.st13{clip-path:url(#SVGID_00000028307157020800375550000000841314457572005556_);}
	.st14{clip-path:url(#SVGID_00000016771327165049891360000015108075149347082402_);}
	.st15{clip-path:url(#SVGID_00000125574463683376227800000011763615947640115076_);}
</style>
<g>
	<g>
		<path class="st2" d="M522.5,261.3c0,99.1-55.2,185.3-136.4,229.6c-17.1,9.3-35.4,16.8-54.6,22.1c-1.1-3.1-1.7-6.4-1.7-9.9
			c0-11.7,6.8-21.8,16.7-26.5c0,0,0,0,0,0c1.1-0.4,2.2-0.9,3.3-1.4c83.9-34.8,142.8-117.4,142.8-213.8
			c0-127.8-103.6-231.4-231.4-231.4c-127.8,0-231.4,103.6-231.4,231.4c0,106.5,71.9,196.1,169.8,223.1c15.5,4.3,31.7,7,48.3,7.9
			c1.5,0.3,3.1,0.4,4.7,0.4c0.7,0,1.4,0,2.1-0.1c15.3-1.1,27.3-13.8,27.3-29.4V322.7c0-16.3,13.2-29.5,29.5-29.5c0.1,0,0.3,0,0.4,0
			v171.4c0,0.5,0,0.9,0,1.4c-0.2,7.9-1.9,15.3-5,22.1c-8.7,19.6-28,33.5-50.6,34.4c-2.9,0-5.7-0.1-8.6-0.3h0
			C109.7,515.1,0,401,0,261.3C0,117,117,0,261.3,0C405.5,0,522.5,117,522.5,261.3z"/>
		<g>
			<g>
				<path class="st3" d="M445.5,223.7v39.2l-175.7,0c-16.3,0-29.5,13.2-29.5,29.5V466h-29.9V290.9c0-10.2,2.6-19.7,7.2-28
					c5.3-9.5,13.1-17.4,22.6-22.6c8.3-4.6,17.9-7.2,28-7.2h147.3v-7.9c0-16.3-13.2-29.5-29.5-29.5H106.8v11
					c1.6,14.8,14.1,26.3,29.3,26.3l72.6,0c-7.6,8-12.7,18.3-14,29.9h-59.9c-10.2,0-19.7-2.6-28-7.2c-9.5-5.3-17.4-13.1-22.6-22.6
					c-4.6-8.3-7.2-17.9-7.2-28l0-39.1h310.7c10.2,0,19.7,2.6,28,7.2c9.5,5.3,17.4,13.1,22.6,22.6C442.9,204,445.5,213.5,445.5,223.7
					z"/>
			</g>
		</g>
	</g>
</g>
</svg>
